<mxfile host="app.diagrams.net" modified="2024-03-11T14:41:09.436Z" agent="Mozilla/5.0 (X11; Linux x86_64) AppleWebKit/537.36 (KHTML, like Gecko) Chrome/114.0.0.0 Safari/537.36" version="24.0.4" etag="Cg9qL43UAVqQN3omUYi_" type="github">
  <diagram name="PÃ¡gina-1" id="rTckMsJobApScgmFptdu">
    <mxGraphModel>
      <root>
        <mxCell id="0" />
        <mxCell id="1" parent="0" />
      </root>
    </mxGraphModel>
  </diagram>
</mxfile>
